<?xml version="1.0" encoding="utf-8"?>
<!-- Generator: Adobe Illustrator 22.0.1, SVG Export Plug-In . SVG Version: 6.00 Build 0)  -->
<svg version="1.1" xmlns="http://www.w3.org/2000/svg" xmlns:xlink="http://www.w3.org/1999/xlink" x="0px" y="0px"
	 viewBox="0 0 300 106" style="enable-background:new 0 0 300 106;" xml:space="preserve">
<style type="text/css">
	.st0{display:none;}
	.st1{display:inline;}
</style>
<g id="Layer_1" class="st0">
	<g class="st1">
		<title  id="title6">Play</title>
		<g id="HkD-ECKMUef_1_">
			<path id="rJ_bNCYfUlG_1_" d="M126.1,55.9v7.3h-5.9V39.7h8c1.4,0.9,2.8,1.1,4.2,1.5c1.1,0.3,2,0.9,2.9,1.6
				c0.7,0.6,1.3,1.5,1.7,2.4c0.4,0.9,0.5,1.9,0.5,2.9c0,1.1-0.2,2.1-0.5,3.2c-0.4,0.9-0.9,1.8-1.7,2.4c-0.9,0.7-1.9,1.3-2.9,1.6
				c-1.3,0.4-2.7,0.6-4.1,0.6L126.1,55.9z M126.1,51.4h2.8c1.9,0.3,3.6-0.9,3.9-2.8c0.1-0.3,0.1-0.7,0-1c0-0.5-0.1-1-0.2-1.5
				c-0.3-0.9-1.1-1.5-2-1.8c-0.6-0.2-1.2-0.3-1.7-0.3h-2.8L126.1,51.4z"/>
			<path id="H1Y-VRKM8xf_1_" d="M145.2,58.8h8.8v4.4h-14.7V39.7h5.9V58.8z"/>
			<path id="B1q-VAYzIef_1_" d="M178.1,64.6h-4.2c0,0-0.8-1.2-1.1-1.4c-0.3-0.2-0.5-0.5-0.6-0.8l-1.4-3.6h-8.8l-1.3,3.7
				c-0.1,0.3-0.3,0.6-0.6,0.8c-0.3,0.2-1.1,1.4-1.1,1.4h-4.3l9.1-23.5h5.2L178.1,64.6z M163.3,54.4h6.3l-2.1-6.3
				c-0.1-0.4-0.3-0.9-0.5-1.5c-0.2-0.6-0.4-1.1-0.6-1.8c-0.2,0.6-0.3,1.2-0.5,1.8s-0.4,1-0.5,1.5L163.3,54.4z"/>
			<path id="HkjbERtMIxz_1_" d="M187.8,54.8v8.4h-5.9v-8.4l-7.4-15.1h4.7c0.4,0.9,0.8,1,1.1,1.2c0.3,0.2,0.5,0.5,0.7,0.8l3.3,6.7
				c0.2,0.5,0.5,1,0.7,1.5c0.2,0.4,0.4,0.9,0.6,1.3c0.2-0.5,0.3-0.9,0.6-1.4c0.2-0.4,0.5-0.9,0.7-1.5l3.2-6.7
				c0.1-0.1,0.2-0.3,0.3-0.4c0.1-0.1,0.2-0.3,0.4-0.4c0.1-0.1,0.3-0.2,0.5-0.3c0.2-0.1,0.4-0.1,0.6,0.5h4.7L187.8,54.8z"/>
			<path id="HJnWNCtM8lz_1_" d="M202,39.7h4.4c0.4,0,0.8,0.1,1.2,0.3c0.3,0.2,0.5,0.5,0.6,0.9l4.5,12.6c0.2,0.5,0.4,1.1,0.6,1.8
				s0.4,1.3,0.6,2c0.1-0.7,0.3-1.4,0.5-2c0.2-0.6,0.4-1.2,0.6-1.8l4.5-12.6c0.1-0.3,0.3-0.6,0.6-0.8c0.3-0.2,0.7-0.4,1.1-0.4h4.4
				l-9.4,23.5h-4.9L202,39.7z"/>
			<path id="Sy6bNCKMLxz_1_" d="M233.3,63.2h-5.9V39.7h5.9V63.2z"/>
			<path id="r10b4AFGUef_1_" d="M259.1,51.4c0,1.6-0.3,3.2-0.9,4.7c-1.1,2.9-3.4,5.1-6.3,6.2c-1.6,0.6-3.3,0.9-5,0.9h-9.2V39.7h9.1
				c1.7,0,3.4,0.3,5,0.9c1.5,0.5,2.8,1.4,3.9,2.4c1.1,1.1,1.9,2.3,2.5,3.7C258.8,48.2,259.1,49.8,259.1,51.4z M253.5,51.4
				c0-1-0.1-2.1-0.4-3.1c-0.3-0.8-0.7-1.6-1.3-2.3c-0.5-0.6-1.2-1.1-2-1.5c-0.9-0.3-1.8-0.5-2.7-0.5h-3.5v14.7h3.5
				c0.9,0,1.8-0.2,2.7-0.5c0.8-0.3,1.5-0.8,2-1.5c0.6-0.7,1-1.5,1.3-2.4C253.4,53.4,253.6,52.4,253.5,51.4z"/>
			<path id="S11GVCKzUlM_1_" d="M275.9,39.7v4.4h-8.8v5.9h5.9v4.4h-5.9v5.9h8.8v2.9h-14.7V39.7H275.9z"/>
			<path id="S1gfNRFMLlM_1_" d="M301.5,52c0,1.6-0.3,3.2-0.9,4.6c-0.6,1.4-1.4,2.7-2.4,3.7c-1.1,1.1-2.3,1.9-3.8,2.5
				c-3.1,1.2-6.6,1.2-9.8,0c-2.9-1.1-5.1-3.4-6.2-6.2c-1.2-3-1.2-6.3,0-9.3c0.5-1.4,1.4-2.7,2.4-3.7c1.1-1.1,2.4-1.9,3.8-2.5
				c3.1-1.2,6.6-1.2,9.8,0c1.4,0.6,2.7,1.4,3.8,2.5c1.1,1.1,1.9,2.3,2.5,3.7C301.2,48.9,301.5,50.5,301.5,52z M296,52
				c0-1-0.1-2.1-0.4-3.1c-0.3-0.9-0.7-1.6-1.3-2.3c-0.6-0.6-1.2-1.1-2-1.5c-1.8-0.7-3.7-0.7-5.5,0c-0.8,0.3-1.5,0.8-2,1.5
				c-0.6,0.7-1,1.5-1.3,2.3c-0.6,2-0.6,4.1,0,6.2c0.3,0.8,0.7,1.6,1.3,2.3c0.5,0.6,1.2,1.2,2,1.5c1.8,0.7,3.7,0.7,5.5,0
				c0.8-0.3,1.5-0.8,2-1.5c0.6-0.7,1-1.5,1.3-2.3C295.9,54.1,296,53.1,296,52z"/>
		</g>
		<g id="rkZMVRYzIlz_1_">
			<polygon id="Skfz4CYzLef_1_" points="26.2,73.4 26.2,19.8 82.3,45.2 			"/>
		</g>
		<g id="BJ7MNRKfUez_1_">
			<path id="r1EM4CKMUlf_1_" d="M53.5,106.5c-29.4,0-53.2-23.8-53.2-53.2S24.1,0,53.5,0s53.2,23.8,53.2,53.2
				C106.7,82.6,82.9,106.5,53.5,106.5z M53.5,5.9C27.3,5.9,6.1,27.1,6.1,53.2s21.2,47.4,47.4,47.4s47.4-21.2,47.4-47.4
				C100.8,27.1,79.7,5.9,53.5,5.9z"/>
		</g>
	</g>
</g>
<g id="Layer_2">
	<g>
		<path d="M106.7,40.4h4.4c0.5,0,0.9,0.1,1.2,0.3c0.3,0.2,0.5,0.5,0.7,0.9l4.6,12.8c0.2,0.6,0.4,1.2,0.6,1.8
			c0.2,0.7,0.4,1.3,0.6,2.1c0.2-0.7,0.3-1.4,0.5-2.1s0.4-1.3,0.6-1.8l4.6-12.8c0.1-0.3,0.3-0.6,0.6-0.8c0.3-0.2,0.7-0.4,1.2-0.4h4.5
			l-9.6,23.8h-5L106.7,40.4z"/>
		<path d="M138.8,64.3h-5.6V40.4h5.6V64.3z"/>
		<path d="M158.5,40.4v4.3h-9.8v5.6h7.5v4.1h-7.5V60h9.8v4.3h-15.3V40.4H158.5z"/>
		<path d="M159.9,40.4h4.6c0.5,0,0.9,0.1,1.2,0.3c0.3,0.2,0.5,0.5,0.6,0.9l3.3,12.4c0.1,0.4,0.2,0.8,0.3,1.3
			c0.1,0.5,0.2,0.9,0.2,1.4c0.1-0.5,0.2-1,0.4-1.4c0.1-0.5,0.3-0.9,0.4-1.3l3.9-12.4c0.1-0.3,0.3-0.6,0.6-0.8
			c0.3-0.2,0.7-0.4,1.2-0.4h1.6c0.5,0,0.9,0.1,1.2,0.3c0.3,0.2,0.5,0.5,0.6,0.9l3.8,12.4c0.1,0.4,0.2,0.8,0.4,1.2
			c0.1,0.4,0.2,0.9,0.3,1.4c0.1-0.5,0.2-0.9,0.3-1.4s0.2-0.8,0.3-1.2l3.3-12.4c0.1-0.3,0.3-0.6,0.6-0.8s0.7-0.4,1.2-0.4h4.4
			l-7.4,23.8h-5l-4.5-14.8c-0.1-0.2-0.2-0.5-0.2-0.8s-0.2-0.6-0.2-0.9c-0.1,0.3-0.2,0.6-0.2,0.9c-0.1,0.3-0.2,0.5-0.2,0.8l-4.5,14.8
			h-5L159.9,40.4z"/>
		<path d="M220.3,40.4v4.4h-6.7v19.4h-5.5V44.8h-6.7v-4.4H220.3z"/>
		<path d="M245.2,52.3c0,1.7-0.3,3.3-0.9,4.8c-0.6,1.5-1.4,2.8-2.5,3.9s-2.4,2-3.9,2.6c-1.5,0.6-3.2,0.9-5.1,0.9s-3.5-0.3-5.1-0.9
			c-1.5-0.6-2.8-1.5-3.9-2.6c-1.1-1.1-1.9-2.4-2.5-3.9c-0.6-1.5-0.9-3.1-0.9-4.8c0-1.7,0.3-3.3,0.9-4.8c0.6-1.5,1.4-2.8,2.5-3.9
			c1.1-1.1,2.4-1.9,3.9-2.6c1.5-0.6,3.2-0.9,5.1-0.9s3.5,0.3,5.1,0.9s2.8,1.5,3.9,2.6c1.1,1.1,1.9,2.4,2.5,3.9
			C244.9,49,245.2,50.6,245.2,52.3z M239.5,52.3c0-1.2-0.2-2.2-0.5-3.2s-0.7-1.7-1.3-2.4s-1.3-1.2-2.1-1.5c-0.8-0.3-1.8-0.5-2.8-0.5
			c-1.1,0-2,0.2-2.9,0.5c-0.8,0.3-1.5,0.9-2.1,1.5s-1,1.5-1.3,2.4s-0.5,2-0.5,3.2c0,1.2,0.2,2.3,0.5,3.2c0.3,0.9,0.7,1.7,1.3,2.4
			s1.3,1.2,2.1,1.5c0.8,0.3,1.8,0.5,2.9,0.5c1.1,0,2-0.2,2.8-0.5c0.8-0.3,1.5-0.8,2.1-1.5s1-1.5,1.3-2.4
			C239.3,54.6,239.5,53.5,239.5,52.3z"/>
		<path d="M257.7,59.9c0.7,0,1.4-0.1,2-0.4c0.6-0.2,1.1-0.6,1.5-1.1s0.7-1,0.9-1.7c0.2-0.7,0.3-1.4,0.3-2.2V40.4h5.5v14.1
			c0,1.5-0.2,2.8-0.7,4c-0.5,1.2-1.2,2.3-2,3.2c-0.9,0.9-2,1.6-3.2,2.1c-1.3,0.5-2.7,0.7-4.3,0.7c-1.6,0-3-0.2-4.3-0.7
			c-1.3-0.5-2.3-1.2-3.2-2.1c-0.9-0.9-1.6-1.9-2-3.2c-0.5-1.2-0.7-2.6-0.7-4V40.4h5.5v14.1c0,0.8,0.1,1.6,0.3,2.2
			c0.2,0.7,0.5,1.2,0.9,1.7c0.4,0.5,0.9,0.8,1.5,1.1C256.3,59.8,257,59.9,257.7,59.9z"/>
		<path d="M277.1,55.4v8.8h-5.5V40.4h7.8c1.7,0,3.2,0.2,4.4,0.5c1.2,0.4,2.2,0.8,3,1.5s1.3,1.4,1.7,2.2c0.3,0.9,0.5,1.8,0.5,2.8
			c0,0.8-0.1,1.5-0.3,2.2c-0.2,0.7-0.5,1.3-0.9,1.9c-0.4,0.6-0.9,1.1-1.5,1.6c-0.6,0.5-1.3,0.8-2.1,1.1c0.4,0.2,0.7,0.4,1,0.7
			c0.3,0.3,0.6,0.6,0.8,1l5.1,8.3h-5c-0.9,0-1.6-0.3-2-1l-4-6.9c-0.2-0.3-0.4-0.5-0.6-0.7s-0.6-0.2-1-0.2H277.1z M277.1,51.6h2.2
			c0.8,0,1.4-0.1,1.9-0.3c0.5-0.2,1-0.5,1.3-0.8c0.3-0.3,0.6-0.7,0.7-1.2c0.2-0.5,0.2-0.9,0.2-1.5c0-1-0.3-1.9-1-2.5
			c-0.7-0.6-1.7-0.9-3.2-0.9h-2.2V51.6z"/>
	</g>
	<g>
		<g>
			<g>
				<path d="M30,56.4c0,1.3-0.3,2.5-0.8,3.5c-0.5,1-1.2,1.9-2.1,2.6c-0.9,0.7-2,1.2-3.2,1.6c-1.3,0.4-2.6,0.5-4.1,0.5
					c-0.9,0-1.8-0.1-2.5-0.2c-0.8-0.1-1.5-0.3-2.1-0.5c-0.6-0.2-1.1-0.4-1.5-0.6c-0.4-0.2-0.7-0.4-0.8-0.5c-0.1-0.1-0.2-0.2-0.3-0.4
					c-0.1-0.1-0.1-0.3-0.2-0.5c0-0.2-0.1-0.4-0.1-0.7c0-0.3,0-0.6,0-1c0-0.7,0.1-1.1,0.2-1.4c0.1-0.3,0.3-0.4,0.5-0.4
					c0.1,0,0.4,0.1,0.7,0.3c0.3,0.2,0.8,0.4,1.3,0.6c0.5,0.2,1.1,0.4,1.8,0.6c0.7,0.2,1.5,0.3,2.4,0.3c0.8,0,1.4-0.1,2-0.3
					c0.6-0.2,1.1-0.4,1.5-0.7c0.4-0.3,0.7-0.7,0.9-1.2c0.2-0.5,0.3-1,0.3-1.5c0-0.6-0.1-1.2-0.4-1.7c-0.2-0.5-0.6-0.9-1.1-1.3
					c-0.5-0.3-1.1-0.6-1.8-0.8c-0.7-0.2-1.6-0.3-2.5-0.3h-2.3c-0.2,0-0.3,0-0.5-0.1c-0.1,0-0.2-0.1-0.3-0.3
					c-0.1-0.2-0.1-0.4-0.2-0.6c0-0.3-0.1-0.6-0.1-1c0-0.4,0-0.7,0.1-1c0-0.3,0.1-0.4,0.2-0.6c0.1-0.1,0.2-0.2,0.3-0.3
					c0.1-0.1,0.3-0.1,0.4-0.1H18c0.8,0,1.5-0.1,2.1-0.3c0.6-0.2,1.1-0.4,1.6-0.8c0.4-0.3,0.7-0.8,1-1.2c0.2-0.5,0.3-1,0.3-1.6
					c0-0.5-0.1-0.9-0.2-1.3c-0.1-0.4-0.4-0.8-0.7-1c-0.3-0.3-0.7-0.5-1.1-0.7c-0.5-0.2-1-0.3-1.6-0.3c-0.7,0-1.4,0.1-2,0.3
					c-0.6,0.2-1.2,0.4-1.7,0.7c-0.5,0.3-0.9,0.5-1.3,0.7c-0.3,0.2-0.6,0.3-0.8,0.3c-0.1,0-0.2,0-0.3-0.1c-0.1,0-0.2-0.1-0.2-0.3
					c-0.1-0.1-0.1-0.3-0.1-0.6c0-0.3,0-0.6,0-1c0-0.3,0-0.6,0-0.9c0-0.2,0-0.4,0.1-0.6c0-0.2,0.1-0.3,0.2-0.4
					c0.1-0.1,0.2-0.2,0.3-0.4c0.1-0.1,0.4-0.3,0.8-0.6c0.4-0.3,1-0.5,1.6-0.8c0.6-0.2,1.4-0.5,2.2-0.6c0.8-0.2,1.8-0.3,2.7-0.3
					c1.3,0,2.4,0.2,3.4,0.5c1,0.3,1.8,0.7,2.5,1.3c0.7,0.6,1.2,1.3,1.5,2.1c0.3,0.8,0.5,1.8,0.5,2.8c0,0.8-0.1,1.6-0.3,2.3
					c-0.2,0.7-0.5,1.3-0.9,1.9c-0.4,0.5-0.9,1-1.5,1.4c-0.6,0.4-1.3,0.7-2.1,0.9v0.1c0.9,0.1,1.8,0.3,2.5,0.7
					c0.7,0.4,1.4,0.8,1.9,1.4c0.5,0.5,0.9,1.2,1.2,1.9C29.9,54.9,30,55.6,30,56.4z"/>
				<path d="M51.9,55.3c0,1.3-0.2,2.6-0.6,3.7c-0.4,1.1-1,2.1-1.8,3c-0.8,0.8-1.8,1.5-2.9,1.9c-1.2,0.5-2.5,0.7-4,0.7
					c-1.2,0-2.3-0.1-3.2-0.4c-0.9-0.3-1.7-0.7-2.4-1.2c-0.7-0.5-1.2-1.2-1.6-1.9c-0.4-0.8-0.8-1.6-1-2.5c-0.3-0.9-0.4-2-0.5-3.1
					c-0.1-1.1-0.1-2.3-0.1-3.5c0-1,0.1-2.1,0.2-3.3c0.1-1.1,0.3-2.2,0.6-3.3c0.3-1.1,0.7-2.1,1.2-3.1c0.5-1,1.2-1.9,2.1-2.6
					c0.8-0.7,1.9-1.3,3.1-1.8c1.2-0.4,2.6-0.7,4.3-0.7c0.5,0,1,0,1.6,0.1c0.5,0.1,1,0.1,1.5,0.2c0.5,0.1,0.8,0.2,1.1,0.3
					c0.3,0.1,0.5,0.2,0.6,0.3c0.1,0.1,0.2,0.2,0.2,0.3c0.1,0.1,0.1,0.2,0.1,0.4c0,0.1,0.1,0.3,0.1,0.5c0,0.2,0,0.4,0,0.7
					c0,0.4,0,0.8,0,1.1c0,0.3-0.1,0.5-0.1,0.7c-0.1,0.2-0.1,0.3-0.2,0.3c-0.1,0.1-0.2,0.1-0.3,0.1c-0.2,0-0.4,0-0.6-0.1
					c-0.3-0.1-0.6-0.2-0.9-0.3c-0.4-0.1-0.8-0.2-1.3-0.3c-0.5-0.1-1.1-0.1-1.7-0.1c-1.1,0-2,0.2-2.8,0.6c-0.8,0.4-1.4,1-1.9,1.7
					c-0.5,0.7-0.8,1.5-1,2.5c-0.2,0.9-0.3,1.9-0.3,3c0.3-0.2,0.6-0.4,1-0.6c0.4-0.2,0.8-0.4,1.3-0.5c0.5-0.1,1-0.2,1.5-0.3
					c0.5-0.1,1.1-0.1,1.7-0.1c1.3,0,2.5,0.2,3.4,0.6c1,0.4,1.7,0.9,2.3,1.6c0.6,0.7,1.1,1.5,1.3,2.5C51.7,53.1,51.9,54.1,51.9,55.3z
					 M46.6,55.9c0-0.7-0.1-1.3-0.2-1.8c-0.1-0.5-0.3-1-0.6-1.3c-0.3-0.4-0.6-0.6-1.1-0.8c-0.5-0.2-1-0.3-1.6-0.3
					c-0.4,0-0.8,0-1.1,0.1c-0.4,0.1-0.7,0.2-1.1,0.3c-0.4,0.1-0.7,0.3-1,0.4c-0.3,0.2-0.6,0.4-0.9,0.5c0,1.5,0.1,2.7,0.2,3.7
					c0.2,1,0.4,1.8,0.7,2.3c0.3,0.6,0.7,1,1.2,1.2c0.5,0.2,1,0.4,1.7,0.4c0.6,0,1.2-0.1,1.7-0.3c0.5-0.2,0.9-0.6,1.2-1
					c0.3-0.4,0.6-0.9,0.7-1.5C46.5,57.1,46.6,56.5,46.6,55.9z"/>
				<path d="M73.3,50.8c0,2.1-0.2,4-0.5,5.7c-0.3,1.7-0.9,3.2-1.7,4.4c-0.8,1.2-1.8,2.1-3,2.8c-1.2,0.6-2.8,1-4.5,1
					c-1.8,0-3.3-0.3-4.5-0.9c-1.2-0.6-2.1-1.5-2.8-2.7c-0.7-1.2-1.2-2.6-1.5-4.3c-0.3-1.7-0.4-3.6-0.4-5.7c0-2.1,0.2-4,0.5-5.7
					c0.3-1.7,0.9-3.2,1.7-4.4c0.8-1.2,1.8-2.1,3-2.8c1.2-0.6,2.7-1,4.5-1c1.8,0,3.3,0.3,4.5,0.9c1.2,0.6,2.1,1.5,2.8,2.7
					c0.7,1.2,1.2,2.6,1.5,4.3C73.2,46.8,73.3,48.7,73.3,50.8z M67.9,51.1c0-1.3,0-2.4-0.1-3.3c-0.1-1-0.2-1.8-0.3-2.5
					c-0.1-0.7-0.3-1.3-0.5-1.8c-0.2-0.5-0.5-0.9-0.8-1.2c-0.3-0.3-0.6-0.5-1-0.6c-0.4-0.1-0.8-0.2-1.3-0.2c-0.8,0-1.5,0.2-2,0.6
					c-0.5,0.4-0.9,1-1.3,1.8c-0.3,0.8-0.5,1.8-0.6,2.9c-0.1,1.2-0.2,2.5-0.2,4.1c0,1.9,0.1,3.5,0.2,4.7c0.2,1.2,0.4,2.2,0.7,3
					c0.3,0.7,0.7,1.2,1.2,1.5c0.5,0.3,1.1,0.4,1.8,0.4c0.5,0,1-0.1,1.4-0.3c0.4-0.2,0.8-0.4,1.1-0.8c0.3-0.3,0.6-0.8,0.8-1.3
					c0.2-0.5,0.4-1.1,0.5-1.8c0.1-0.7,0.2-1.5,0.3-2.3C67.8,53.1,67.9,52.1,67.9,51.1z"/>
			</g>
			<path d="M75.2,38.5c0-2.6,2.1-4.7,4.7-4.7l0,0c2.6,0,4.7,2.1,4.7,4.7l0,0c0,2.6-2.1,4.7-4.7,4.7l0,0
				C77.3,43.2,75.2,41.1,75.2,38.5L75.2,38.5z M78.1,38.5c0,1,0.8,1.8,1.8,1.8l0,0c1,0,1.7-0.8,1.8-1.8l0,0c0-1-0.8-1.7-1.8-1.8l0,0
				C78.9,36.8,78.1,37.5,78.1,38.5L78.1,38.5z"/>
		</g>
		<path d="M26.2,87.9c11.2,11.4,35.5,5.7,54.3-12.8c0.6-0.5,1.1-1.1,1.6-1.7l-12.4,3.7l1.8-7.6C56.2,83.3,38,87.8,29.9,79.5
			c-2.8-2.9-4.1-6.9-4-11.7h-4.8C19.9,75.9,21.5,83.1,26.2,87.9z"/>
		<path d="M79.9,49.1l-5.5,22.8l22.5-6.6l-4.8-4.6c9.3-15.2,10.7-31,2.3-39.6C83.3,9.7,59,15.4,40.1,33.9c-0.2,0.2-0.4,0.4-0.6,0.6
			h4.2C59.5,19.5,78.8,14.3,87.3,23c6.3,6.4,4.9,18.6-2.5,30.8L79.9,49.1z"/>
	</g>
</g>
</svg>
